<?xml version="1.0" encoding="utf-8"?>
<!-- Generator: Adobe Illustrator 16.0.0, SVG Export Plug-In . SVG Version: 6.00 Build 0)  -->
<!DOCTYPE svg PUBLIC "-//W3C//DTD SVG 1.1//EN" "http://www.w3.org/Graphics/SVG/1.1/DTD/svg11.dtd">
<svg version="1.1" id="Layer_1" xmlns="http://www.w3.org/2000/svg" xmlns:xlink="http://www.w3.org/1999/xlink" x="0px" y="0px"
	 width="100px" height="35px" viewBox="0 0 100 35" enable-background="new 0 0 100 35" xml:space="preserve">
<g>
	<path fill="#FFFFFF" d="M7.146,11.273c-0.373,0.174-0.721,0.249-1.044,0.249c-1.292,0-2.038-1.119-2.038-2.312
		c0-4.077,4.524-4.947,6.885-4.947c2.759,0,5.146,1.069,8.004-0.199c0.547,2.237-0.646,3.753-2.436,3.753
		c-0.994,0-2.361-0.671-3.629-1.243l-1.392,6.513c1.193,0.124,2.188,0.447,3.207-0.05c0.597,0.771-0.075,2.038-1.367,2.038
		c-0.746,0-1.442-0.273-2.163-0.422l-1.566,7.359c-0.249,1.168-1.218,1.59-2.138,1.59c-0.572,0-1.044-0.125-1.317-0.322l3.952-17.5
		C8.439,5.954,6.649,7.221,6.649,9.831C6.649,10.254,6.799,10.875,7.146,11.273z"/>
	<path fill="#FFFFFF" d="M21.362,10.751c1.243,0,2.237,0.348,2.983,1.466c-0.05,0.572-0.472,0.845-0.845,0.696
		c-0.472-0.174-0.994-0.273-1.591-0.273c-2.262,0-3.729,3.331-3.729,5.767c0,2.187,0.746,3.032,1.616,3.032
		c1.466,0,3.331-2.412,2.734-5.095c-0.448-0.025-0.87-0.125-1.144-0.298c-0.522-1.367,0.025-2.61,1.442-2.61
		c0.969,0,1.765,0.547,2.113,1.466c1.665-0.373,3.107-1.268,4.25-2.038c0.298,0.199,0.298,0.919-0.125,1.243
		c-0.622,0.472-2.312,1.666-3.927,1.989c-0.149,3.751-3.53,7.505-6.488,7.505c-2.56,0-3.654-2.063-3.654-4.399
		C14.999,15.449,17.608,10.751,21.362,10.751z"/>
	<path fill="#FFFFFF" d="M32.892,10.751c1.243,0,2.237,0.348,2.983,1.466c-0.05,0.572-0.472,0.845-0.845,0.696
		c-0.472-0.174-0.994-0.273-1.591-0.273c-2.262,0-3.729,3.331-3.729,5.767c0,2.187,0.746,3.032,1.616,3.032
		c1.466,0,3.331-2.412,2.734-5.095c-0.448-0.025-0.87-0.125-1.144-0.298c-0.522-1.367,0.025-2.61,1.442-2.61
		c0.969,0,1.765,0.547,2.113,1.466c1.665-0.373,3.107-1.268,4.25-2.038c0.298,0.199,0.298,0.919-0.125,1.243
		c-0.622,0.472-2.312,1.666-3.927,1.989c-0.149,3.751-3.53,7.505-6.488,7.505c-2.56,0-3.654-2.063-3.654-4.399
		C26.529,15.449,29.139,10.751,32.892,10.751z"/>
	<path fill="#FFFFFF" d="M44.97,21.092c-1.044,1.467-2.361,2.51-3.778,2.51c-2.585,0-3.107-2.586-3.107-4.176
		c0-4.35,2.809-8.675,6.264-8.675c1.02,0,1.79,0.224,2.386,0.696l0.622-2.908c0.149-0.671-0.323-0.82-0.721-0.348
		c-0.348-0.323-0.373-0.571-0.373-0.771c0-0.572,1.79-1.765,3.132-1.765c0.895,0,1.392,0.422,1.193,1.367L47.978,19.4
		c-0.298,1.393,0.099,1.84,0.746,1.84c0.919,0,1.988-0.621,2.61-1.242c0.273,0.123,0.423,0.348,0.423,0.596
		c0,0.174-0.073,0.373-0.225,0.547c-1.167,1.318-2.958,2.461-4.299,2.461C46.063,23.602,44.945,23.055,44.97,21.092z M45.02,19.5
		l1.417-6.661c-0.423-0.149-0.82-0.224-1.193-0.224c-3.008,0-4.077,3.927-4.077,6.637c0,1.242,0.572,1.789,1.342,1.789
		c0.795,0,1.839-0.646,2.511-1.566V19.5z"/>
	<path fill="#FFFFFF" d="M52.424,13.733c0.1-0.397-0.025-0.621-0.249-0.621c-0.124,0-0.272,0.099-0.497,0.298
		c-0.322-0.199-0.496-0.97,0-1.367c0.846-0.671,1.74-1.193,2.783-1.193c0.895,0,1.418,0.423,1.193,1.367l-0.123,0.597
		c0.969-1.193,2.137-1.964,3.379-1.964c2.188,0,3.158,1.839,3.158,4.102c0,3.728-2.711,8.649-6.961,8.649
		c-0.596,0-1.217-0.223-1.715-0.646l-1.715,8.252c-0.248,1.146-1.119,1.565-2.015,1.565c-0.447,0-0.87-0.123-1.168-0.321
		L52.424,13.733z M55.082,14.927l-1.365,6.487c0.447,0.248,0.844,0.273,1.242,0.273c2.535,0,4.051-3.381,4.051-5.841
		c0-1.74-0.621-2.51-1.467-2.51C56.799,13.336,55.902,13.908,55.082,14.927z"/>
	<path fill="#FFFFFF" d="M71.709,11.571c0.424-0.498,1.068-0.721,1.691-0.721c0.447,0,0.869,0.125,1.168,0.323l-1.74,8.228
		c-0.299,1.393,0.1,1.84,0.746,1.84c0.92,0,1.988-0.621,2.609-1.242c0.272,0.123,0.422,0.348,0.422,0.596
		c0,0.174-0.074,0.373-0.224,0.547c-1.168,1.318-2.959,2.461-4.301,2.461c-1.168,0-2.336-0.547-2.312-2.51
		c-1.045,1.467-2.362,2.51-3.778,2.51c-2.584,0-3.107-2.586-3.107-4.176c0-4.35,2.81-8.675,6.265-8.675
		C70.268,10.751,71.088,11.024,71.709,11.571z M71.213,12.814c-0.424-0.149-0.797-0.199-1.168-0.199
		c-3.008,0-4.078,3.927-4.078,6.637c0,1.242,0.572,1.789,1.344,1.789c0.795,0,1.838-0.646,2.51-1.566L71.213,12.814z"/>
	<path fill="#FFFFFF" d="M80.232,13.56c0.994-2.013,2.063-2.709,3.205-2.709c1.192,0,1.813,0.945,1.813,1.964
		c0,1.119-0.694,2.336-1.987,2.336c-0.224,0-0.496-0.025-0.722-0.099c0.174-0.149,0.272-0.473,0.272-0.771
		c0-0.348-0.248-0.621-0.77-0.621c-0.82,0-1.988,1.119-3.256,6.859l-0.299,1.517c-0.248,1.146-1.193,1.565-2.088,1.565
		c-0.447,0-0.871-0.125-1.168-0.322l2.037-9.545c0.074-0.397-0.025-0.621-0.248-0.621c-0.125,0-0.273,0.099-0.498,0.298
		c-0.322-0.199-0.496-0.97,0-1.367c0.846-0.671,1.74-1.193,2.785-1.193c0.895,0,1.391,0.423,1.192,1.367L80.232,13.56z"/>
	<path fill="#FFFFFF" d="M87.563,8.539c0.148-0.671-0.321-0.82-0.721-0.348c-0.348-0.323-0.373-0.571-0.373-0.771
		c0-0.572,1.789-1.765,3.133-1.765c0.896,0,1.392,0.422,1.191,1.367l-2.037,9.52l0.496-0.125c1.592-0.472,2.412-1.392,2.412-2.883
		c0-0.696-0.074-1.243-0.348-1.541c0.322-0.671,1.067-1.144,1.938-1.144c0.994,0,1.393,0.522,1.393,1.864
		c0.025,1.989-1.541,3.48-3.106,4.226c0.349,1.467,1.021,4.275,2.313,4.275c0.646,0,0.942-0.348,1.143-1.192
		c0.473,0,0.746,0.25,0.746,0.672c0,1.74-1.492,2.908-3.182,2.908c-2.486,0-3.133-3.978-3.504-5.917l-0.572,0.149l-0.896,4.2
		c-0.25,1.146-1.192,1.565-2.088,1.565c-0.446,0-0.746-0.049-1.045-0.248L87.563,8.539z"/>
</g>
</svg>
